<?xml version="1.0" standalone="no"?>
<!DOCTYPE svg PUBLIC "-//W3C//DTD SVG 20010904//EN"
 "http://www.w3.org/TR/2001/REC-SVG-20010904/DTD/svg10.dtd">
<svg version="1.0" xmlns="http://www.w3.org/2000/svg"
 width="720.000000pt" height="672.000000pt" viewBox="0 0 720.000000 672.000000"
 preserveAspectRatio="xMidYMid meet">

<g transform="translate(0.000000,672.000000) scale(0.100000,-0.100000)"
fill="#000000" stroke="none">
<path d="M3325 6704 c-22 -2 -89 -9 -150 -14 -552 -54 -1150 -268 -1635 -584
-92 -61 -256 -179 -270 -196 -3 -3 -18 -16 -35 -29 -83 -63 -294 -264 -395
-377 -75 -83 -208 -254 -275 -354 -38 -58 -73 -106 -77 -108 -5 -2 -8 -8 -8
-13 0 -5 -21 -44 -46 -85 -39 -64 -76 -138 -185 -369 -11 -25 -76 -205 -95
-265 -111 -350 -163 -753 -143 -1100 14 -229 52 -479 99 -655 33 -125 105
-331 146 -423 13 -29 24 -55 24 -58 0 -11 94 -194 153 -297 87 -150 95 -164
155 -245 28 -39 52 -76 52 -81 0 -5 4 -11 8 -13 4 -2 23 -23 42 -48 19 -24 40
-50 45 -56 6 -6 30 -36 55 -65 47 -58 302 -314 360 -364 19 -17 71 -58 115
-93 44 -35 87 -69 96 -76 8 -7 65 -46 125 -87 60 -41 110 -77 112 -81 2 -5 8
-8 13 -8 5 0 44 -21 87 -46 164 -97 291 -159 487 -237 207 -84 518 -176 693
-207 282 -49 449 -63 722 -63 239 1 300 4 470 27 256 34 275 38 480 90 332 85
696 234 955 391 41 25 79 45 84 45 5 0 11 3 13 8 2 4 50 38 107 77 100 67 272
199 356 273 115 101 306 296 365 372 19 25 37 47 40 50 3 3 17 21 32 42 15 20
34 42 41 50 27 26 189 275 244 373 71 127 181 367 220 480 114 333 170 627
189 990 15 298 -61 802 -161 1075 -9 25 -26 74 -39 110 -13 36 -35 91 -50 123
-14 32 -26 60 -26 63 0 20 -166 327 -238 441 -175 276 -458 588 -732 809 -423
339 -889 569 -1430 704 -314 79 -498 101 -865 105 -159 2 -308 1 -330 -1z
m710 -204 c50 -6 121 -18 159 -26 38 -8 81 -14 97 -14 15 0 31 -4 34 -10 3 -5
18 -10 32 -10 59 0 409 -102 573 -167 105 -41 419 -190 430 -204 3 -3 32 -21
65 -39 33 -18 62 -36 65 -40 3 -3 12 -9 20 -13 22 -10 46 -26 127 -84 40 -29
77 -53 83 -53 5 0 10 -4 10 -8 0 -7 85 -72 95 -72 2 0 21 -17 42 -37 21 -21
76 -71 121 -111 72 -65 128 -121 228 -228 90 -98 104 -114 104 -120 0 -3 17
-27 38 -53 21 -25 54 -68 72 -96 19 -27 38 -54 42 -60 10 -12 69 -99 83 -123
83 -138 129 -226 230 -447 42 -91 126 -366 146 -480 6 -33 15 -69 20 -80 8
-20 21 -115 40 -290 12 -107 14 -400 5 -505 -12 -127 -37 -313 -46 -350 -5
-19 -23 -91 -40 -159 -38 -151 -99 -333 -133 -398 -9 -18 -17 -37 -17 -43 0
-6 -27 -64 -59 -128 -88 -173 -104 -204 -123 -226 -10 -11 -18 -24 -18 -29 0
-9 -106 -169 -137 -207 -6 -8 -33 -44 -60 -80 -26 -36 -52 -70 -58 -76 -5 -6
-35 -39 -65 -74 -68 -77 -236 -246 -309 -308 -30 -26 -65 -57 -78 -69 -13 -13
-26 -23 -28 -23 -5 0 -17 -10 -68 -53 -12 -10 -34 -26 -49 -35 -16 -9 -28 -20
-28 -24 0 -4 -5 -8 -11 -8 -6 0 -23 -9 -37 -21 -35 -27 -165 -109 -222 -140
-25 -13 -47 -27 -50 -30 -7 -8 -239 -123 -280 -139 -19 -8 -37 -17 -40 -20 -8
-10 -323 -124 -415 -150 -44 -12 -100 -29 -125 -36 -82 -25 -243 -54 -425 -78
-859 -113 -1731 82 -2431 545 -93 62 -171 115 -174 118 -9 10 -89 71 -94 71
-2 0 -18 12 -33 28 -16 15 -55 50 -86 77 -80 70 -240 230 -295 294 -26 30 -55
63 -64 73 -10 10 -18 21 -18 26 0 4 -14 21 -30 39 -17 18 -30 36 -30 42 0 5
-4 11 -8 13 -5 2 -23 26 -42 53 -18 28 -37 52 -41 55 -4 3 -15 19 -25 37 -11
17 -46 76 -80 130 -96 156 -194 361 -250 528 -19 55 -39 109 -44 120 -16 36
-70 261 -70 293 0 17 -4 32 -8 34 -20 8 -52 354 -52 558 0 204 32 550 52 558
4 2 8 17 8 34 0 33 60 280 71 288 3 3 9 19 13 35 10 41 53 159 82 223 13 29
24 57 24 62 0 11 111 233 120 240 4 3 22 33 40 68 18 34 37 62 41 62 5 0 9 5
9 12 0 11 57 107 70 118 4 3 21 28 40 55 19 28 36 52 39 55 18 15 71 90 71 99
0 6 3 11 8 11 4 0 50 48 101 106 85 96 277 280 358 344 18 14 46 36 64 50 17
14 40 32 49 40 9 8 24 20 33 25 32 21 202 135 212 143 6 4 37 23 70 41 33 19
62 36 65 40 5 6 226 115 305 151 310 139 719 249 1040 279 66 6 134 13 150 15
62 9 613 -3 700 -14z"/>
<path d="M3117 6103 c-4 -3 -7 -16 -6 -27 0 -19 1 -19 10 3 10 24 8 36 -4 24z"/>
<path d="M3681 5984 c0 -11 3 -14 6 -6 3 7 2 16 -1 19 -3 4 -6 -2 -5 -13z"/>
<path d="M2640 5920 c0 -5 5 -10 11 -10 5 0 7 5 4 10 -3 6 -8 10 -11 10 -2 0
-4 -4 -4 -10z"/>
<path d="M3362 5780 c0 -14 2 -19 5 -12 2 6 2 18 0 25 -3 6 -5 1 -5 -13z"/>
<path d="M4256 5769 c-3 -17 -5 -46 -5 -63 1 -18 5 -7 10 28 9 63 6 88 -5 35z"/>
<path d="M4711 5694 c0 -11 3 -14 6 -6 3 7 2 16 -1 19 -3 4 -6 -2 -5 -13z"/>
<path d="M2241 5674 c0 -11 3 -14 6 -6 3 7 2 16 -1 19 -3 4 -6 -2 -5 -13z"/>
<path d="M3370 5680 c0 -5 5 -10 11 -10 5 0 7 5 4 10 -3 6 -8 10 -11 10 -2 0
-4 -4 -4 -10z"/>
<path d="M1975 5670 c3 -5 8 -10 11 -10 2 0 4 5 4 10 0 6 -5 10 -11 10 -5 0
-7 -4 -4 -10z"/>
<path d="M3965 5630 c-4 -17 -5 -34 -2 -36 2 -3 7 10 11 27 8 42 0 50 -9 9z"/>
<path d="M1921 5484 c0 -11 3 -14 6 -6 3 7 2 16 -1 19 -3 4 -6 -2 -5 -13z"/>
<path d="M2650 5450 c0 -5 5 -10 10 -10 6 0 10 5 10 10 0 6 -4 10 -10 10 -5 0
-10 -4 -10 -10z"/>
<path d="M5375 5410 c-3 -5 -1 -10 4 -10 6 0 11 5 11 10 0 6 -2 10 -4 10 -3 0
-8 -4 -11 -10z"/>
<path d="M3320 5391 c-69 -11 -152 -26 -185 -34 -33 -8 -86 -21 -117 -28 -32
-7 -58 -17 -58 -21 0 -4 -9 -8 -20 -8 -80 0 -528 -226 -640 -322 -11 -10 -24
-18 -29 -18 -5 0 -11 -4 -13 -8 -1 -4 -23 -23 -48 -42 -61 -47 -284 -272 -342
-346 -26 -32 -62 -81 -79 -109 -17 -27 -35 -51 -40 -53 -5 -2 -9 -8 -9 -13 0
-5 -18 -37 -39 -73 -131 -213 -239 -542 -257 -778 -3 -46 -8 -90 -11 -98 -7
-23 -6 -246 1 -325 4 -38 16 -122 27 -185 44 -251 163 -546 304 -754 33 -48
65 -95 70 -104 19 -32 205 -233 272 -295 66 -60 173 -147 181 -147 4 0 24 -16
46 -34 21 -19 50 -40 65 -47 14 -8 28 -17 31 -20 26 -31 324 -174 450 -215
314 -103 563 -141 848 -131 384 14 716 101 1032 270 41 22 82 46 91 53 8 8 19
14 22 14 7 0 148 93 177 116 195 159 328 291 430 429 25 33 47 62 50 65 3 3
10 14 17 25 6 11 32 54 56 95 24 41 60 105 79 141 33 61 47 95 99 234 32 85
69 231 73 290 2 30 9 62 16 70 7 8 9 22 6 31 -3 9 -1 46 5 82 16 103 14 391
-5 507 -21 129 -29 166 -46 220 -10 33 -26 86 -35 118 -10 31 -21 57 -25 57
-4 0 -7 6 -7 13 -1 21 -49 147 -61 159 -6 6 -8 17 -5 24 3 8 1 14 -4 14 -15 0
-63 80 -63 105 0 12 -7 26 -16 29 -9 3 -14 13 -11 21 4 9 1 12 -9 8 -8 -3 -14
1 -14 11 0 9 -4 16 -8 16 -4 0 -16 15 -27 33 -36 61 -124 175 -182 235 -32 33
-57 65 -55 71 2 6 -2 11 -9 11 -7 0 -35 21 -64 48 -87 80 -177 157 -194 165
-9 4 -36 23 -61 42 -115 89 -329 203 -480 255 -52 18 -99 36 -105 40 -10 8
-199 58 -245 65 -14 2 -63 12 -110 21 -134 26 -557 29 -720 5z m515 -171 c276
-26 526 -93 760 -206 173 -83 282 -156 460 -304 74 -62 238 -243 313 -345 122
-167 237 -422 291 -645 50 -207 62 -503 27 -700 -19 -111 -60 -281 -76 -315
-5 -11 -20 -49 -33 -85 -46 -125 -179 -366 -209 -378 -4 -2 -8 -8 -8 -14 0
-17 -85 -120 -190 -231 -60 -64 -167 -155 -285 -245 -124 -94 -380 -222 -555
-277 -652 -207 -1372 -99 -1904 285 -185 134 -399 353 -488 498 -12 20 -25 39
-28 42 -19 15 -107 184 -158 305 -35 80 -96 291 -111 380 -68 400 -1 812 190
1173 105 198 202 325 366 482 149 142 268 233 403 307 30 17 69 38 85 47 138
76 378 157 565 192 231 42 394 51 585 34z"/>
<path d="M3420 4761 c0 -13 8 -21 23 -23 18 -3 22 -9 22 -42 l0 -40 -60 -12
c-149 -30 -211 -61 -301 -149 -99 -97 -144 -206 -144 -350 0 -185 82 -348 220
-438 55 -36 170 -80 245 -93 28 -5 33 -9 18 -11 -22 -4 -37 -28 -27 -44 3 -5
70 -9 150 -9 129 0 145 2 150 18 12 39 24 48 94 69 40 12 80 29 89 37 10 9 20
14 23 11 13 -14 28 24 19 48 -14 37 -26 40 -73 16 -52 -27 -170 -38 -193 -19
-13 11 -15 66 -15 399 0 212 3 395 6 407 5 18 11 20 47 14 84 -13 127 -48 128
-104 2 -68 12 -91 39 -91 19 0 26 7 31 30 4 17 7 24 8 18 0 -7 9 -13 19 -13
14 0 19 9 20 37 2 21 7 57 13 81 16 74 0 89 -126 117 -152 35 -230 87 -155
105 23 5 26 11 22 40 -1 6 -58 10 -147 10 -137 0 -145 -1 -145 -19z m44 -223
c9 -36 7 -771 -3 -787 -13 -20 -105 56 -157 131 -52 73 -74 159 -74 280 1 178
55 298 165 366 61 37 61 37 69 10z"/>
<path d="M2193 3183 c-29 -6 -63 -49 -63 -80 0 -30 48 -78 87 -88 49 -12 73
-33 73 -65 0 -32 -22 -50 -63 -50 -26 0 -77 38 -77 57 0 7 -5 15 -11 18 -7 5
-9 -7 -7 -35 3 -46 -3 -43 98 -52 62 -5 110 34 110 89 0 39 -45 93 -77 93 -10
0 -33 9 -50 20 -38 23 -44 58 -12 78 25 16 56 7 92 -26 l27 -26 0 32 c0 27 -4
32 -24 32 -13 0 -36 2 -52 4 -16 2 -39 2 -51 -1z"/>
<path d="M2766 3167 c-48 -27 -76 -77 -76 -135 0 -59 22 -96 73 -127 53 -30
78 -31 131 -5 39 19 78 60 56 60 -5 0 -10 -4 -10 -9 0 -5 -16 -19 -35 -31 -30
-18 -40 -20 -67 -10 -52 17 -72 54 -76 135 -3 62 -1 73 21 98 43 48 99 35 153
-38 13 -19 14 -17 12 24 l-3 43 -42 3 c-24 2 -55 6 -70 9 -19 4 -41 -1 -67
-17z"/>
<path d="M3008 3179 c-5 -4 -3 -9 6 -12 13 -5 16 -25 16 -114 0 -129 8 -147
75 -161 55 -12 111 -1 138 26 23 24 36 84 37 174 0 37 5 70 10 73 6 3 10 10
10 15 0 7 -16 8 -63 1 -5 0 -1 -11 7 -23 25 -35 18 -184 -9 -222 -8 -10 -31
-20 -53 -23 -34 -5 -45 -1 -66 20 -24 25 -26 32 -26 126 0 83 3 102 17 109 12
7 3 11 -36 13 -29 2 -57 1 -63 -2z"/>
<path d="M3350 3178 c0 -5 6 -11 14 -14 24 -9 36 -61 36 -150 0 -71 -3 -87
-20 -104 l-20 -20 47 0 47 0 -22 20 c-19 18 -22 31 -22 100 0 44 4 80 8 80 5
0 20 -12 33 -28 116 -132 153 -172 160 -172 5 0 9 58 9 129 0 104 3 133 16
145 8 9 12 17 7 17 -37 6 -60 6 -72 -1 -11 -6 -9 -9 7 -14 20 -7 22 -14 22
-94 l-1 -87 -46 50 c-131 143 -131 143 -167 147 -20 2 -36 0 -36 -4z"/>
<path d="M4164 3175 c-4 -11 -20 -54 -36 -95 -15 -41 -28 -77 -28 -80 0 -3 22
-3 50 -2 48 4 50 3 67 -33 14 -28 15 -40 6 -55 -11 -17 -8 -19 47 -22 l59 -3
-19 20 c-11 12 -40 73 -65 136 -25 64 -52 124 -59 135 -14 19 -15 19 -22 -1z
m26 -147 c0 -14 -8 -18 -36 -18 -33 0 -36 2 -30 25 3 13 11 37 17 52 l11 28
18 -35 c11 -19 19 -43 20 -52z"/>
<path d="M4380 3182 c-5 -2 -3 -10 5 -19 22 -22 22 -235 -1 -257 -14 -15 -10
-16 40 -16 l54 0 -14 30 c-14 27 -15 103 -1 116 3 3 18 0 34 -8 22 -10 30 -24
39 -64 15 -70 19 -74 67 -74 35 1 39 3 27 13 -9 7 -24 33 -34 60 -10 26 -27
54 -39 62 -19 13 -20 17 -7 25 8 5 20 10 26 10 17 0 37 46 31 72 -8 29 -35 46
-87 54 -27 4 -40 3 -40 -5 0 -6 8 -11 19 -11 26 0 44 -26 43 -63 -1 -36 -26
-59 -61 -55 -21 3 -25 9 -28 51 -3 28 0 54 8 63 6 8 8 15 3 15 -23 3 -75 4
-84 1z"/>
<path d="M4703 3178 c-2 -5 1 -8 6 -8 16 0 15 -252 -1 -268 -9 -9 1 -12 46
-12 52 0 57 2 45 16 -8 10 -14 56 -17 128 -4 94 -2 114 12 125 9 7 16 16 16
20 0 9 -101 8 -107 -1z"/>
<path d="M4986 3162 c-13 -26 -66 -159 -66 -168 0 -1 16 0 34 3 59 9 84 -2 92
-44 4 -20 2 -43 -3 -52 -9 -14 -3 -16 48 -16 58 0 71 6 46 22 -12 8 -27 40
-88 188 -18 44 -36 84 -40 89 -4 4 -14 -5 -23 -22z m19 -99 c18 -42 13 -53
-25 -53 -32 0 -47 15 -32 33 5 7 12 25 16 40 8 34 21 27 41 -20z"/>
<path d="M2403 3169 c15 -9 17 -26 17 -129 0 -68 -4 -121 -10 -125 -29 -18 1
-25 110 -25 89 0 120 3 120 13 0 6 3 23 6 37 6 25 6 25 -9 4 -22 -29 -67 -46
-113 -42 l-39 3 0 64 c0 74 12 85 50 47 l25 -25 0 46 c0 44 -1 45 -18 30 -10
-10 -28 -17 -40 -17 -20 0 -22 5 -22 61 l0 62 52 -5 c38 -4 57 -12 70 -28 22
-27 31 -22 22 14 l-6 26 -117 0 c-84 -1 -111 -3 -98 -11z"/>
<path d="M3725 3163 c15 -14 17 -33 13 -129 -2 -66 -9 -118 -16 -127 -10 -12
0 -15 65 -21 93 -7 141 4 187 45 75 65 46 203 -51 240 -13 5 -67 9 -119 9 -90
0 -94 -1 -79 -17z m187 -23 c52 -64 40 -202 -20 -229 -36 -17 -80 -13 -90 7
-4 9 -6 70 -4 136 l4 118 46 -5 c31 -3 52 -12 64 -27z"/>
<path d="M4080 2960 c0 -12 -12 -32 -26 -45 l-27 -25 48 0 c43 0 47 2 31 13
-14 10 -17 23 -14 45 2 18 1 32 -4 32 -4 0 -8 -9 -8 -20z"/>
<path d="M4902 2952 c-5 -16 -17 -36 -27 -45 -15 -16 -14 -17 26 -17 38 0 41
1 24 13 -14 11 -17 22 -12 45 8 40 2 41 -11 4z"/>
<path d="M3768 2781 c-32 -5 -79 -21 -110 -39 l-54 -30 -39 23 c-54 33 -155
49 -232 36 -202 -32 -314 -201 -274 -413 10 -56 55 -181 72 -203 5 -5 27 -34
49 -62 43 -57 63 -67 58 -30 -3 21 1 22 60 25 l63 3 -3 -37 c-3 -41 -24 -56
-44 -29 -16 21 -44 13 -44 -13 0 -19 41 -61 120 -122 24 -19 53 -43 64 -52 42
-37 155 -108 173 -108 20 0 108 56 162 104 99 87 195 185 188 192 -4 4 -30 7
-58 5 -28 -1 -57 3 -65 10 -8 6 -14 7 -14 2 0 -6 -21 -13 -47 -17 -41 -5 -50
-3 -64 15 -11 15 -18 18 -23 10 -4 -6 -2 -11 3 -11 6 0 11 -5 11 -10 0 -7 -37
-10 -100 -9 l-100 2 0 27 c0 24 25 60 34 49 1 -2 10 -15 19 -29 l17 -24 0 23
c0 17 4 22 16 17 9 -3 18 -6 20 -6 2 0 4 -9 4 -21 0 -12 5 -19 12 -17 7 3 13
15 13 29 0 23 2 24 85 26 46 2 91 5 98 8 7 3 22 0 33 -5 13 -7 19 -7 19 0 0
19 21 10 29 -12 l8 -22 5 22 c9 31 35 27 53 -8 9 -16 17 -30 20 -30 2 0 24 26
48 59 26 34 59 95 78 147 30 79 33 100 34 189 0 88 -3 106 -27 155 -69 142
-197 204 -370 181z m180 -114 c8 -8 21 -39 28 -69 l14 -53 -40 -33 -40 -34 27
-28 c54 -54 73 -89 73 -136 0 -38 -35 -32 -49 9 -19 52 -31 14 -15 -47 8 -28
14 -65 14 -82 0 -16 5 -35 11 -41 19 -19 -20 -29 -111 -29 -70 1 -84 4 -81 16
11 42 40 177 40 189 1 11 -2 11 -14 1 -8 -7 -15 -18 -15 -26 0 -7 -8 -18 -18
-23 -15 -8 -25 -3 -52 25 -40 43 -48 39 -19 -10 l22 -37 -22 -6 c-26 -7 -26
-8 3 -69 13 -27 22 -52 19 -56 -9 -17 -67 -7 -90 14 l-24 22 -5 -21 c-7 -26
-27 -35 -60 -27 -29 7 -30 19 -5 83 l20 49 -21 5 -20 6 22 35 c12 20 17 36 10
36 -6 0 -19 -13 -28 -30 -22 -38 -45 -38 -72 0 -35 50 -44 39 -36 -50 3 -44
11 -91 16 -104 5 -13 6 -27 3 -30 -11 -10 -73 -7 -73 4 0 7 -6 7 -19 0 -11 -5
-36 -10 -56 -10 -33 0 -37 2 -32 23 18 74 28 147 25 172 l-4 30 -13 -32 c-19
-48 -51 -45 -51 3 0 39 26 90 69 137 16 18 22 31 15 35 -6 4 -23 17 -38 29
-27 22 -27 23 -16 77 14 70 44 96 107 96 54 0 84 -28 103 -97 l13 -46 -37 -34
-37 -34 23 -30 c74 -96 69 -91 89 -73 10 9 21 26 25 38 3 11 18 31 33 43 l26
22 -35 30 c-19 17 -43 30 -52 31 -13 0 -18 8 -18 31 0 37 14 66 51 102 23 22
38 27 76 27 27 0 59 -6 73 -13 56 -28 93 -129 53 -144 -23 -9 -83 -56 -83 -65
0 -4 14 -14 30 -23 17 -9 30 -21 30 -29 0 -7 11 -23 25 -36 l24 -23 18 33 c10
18 28 45 40 60 l23 28 -40 27 c-42 29 -45 37 -31 98 11 45 44 84 75 89 31 5
87 -8 104 -25z m-482 -613 c-13 -40 -28 -43 -44 -9 -18 38 -15 43 21 43 33 0
33 0 23 -34z"/>
<path d="M3761 2064 c0 -11 3 -14 6 -6 3 7 2 16 -1 19 -3 4 -6 -2 -5 -13z"/>
<path d="M4620 5330 c0 -5 5 -10 10 -10 6 0 10 5 10 10 0 6 -4 10 -10 10 -5 0
-10 -4 -10 -10z"/>
<path d="M5110 5320 c0 -5 5 -10 10 -10 6 0 10 5 10 10 0 6 -4 10 -10 10 -5 0
-10 -4 -10 -10z"/>
<path d="M5086 5283 c-6 -14 -5 -15 5 -6 7 7 10 15 7 18 -3 3 -9 -2 -12 -12z"/>
<path d="M5245 5240 c-3 -5 -1 -10 4 -10 6 0 11 5 11 10 0 6 -2 10 -4 10 -3 0
-8 -4 -11 -10z"/>
<path d="M1600 5040 c0 -5 5 -10 11 -10 5 0 7 5 4 10 -3 6 -8 10 -11 10 -2 0
-4 -4 -4 -10z"/>
<path d="M5878 4953 c7 -3 16 -2 19 1 4 3 -2 6 -13 5 -11 0 -14 -3 -6 -6z"/>
<path d="M1750 4901 c0 -6 4 -13 10 -16 6 -3 7 1 4 9 -7 18 -14 21 -14 7z"/>
<path d="M1365 4840 c10 -11 20 -20 23 -20 3 0 -3 9 -13 20 -10 11 -20 20 -23
20 -3 0 3 -9 13 -20z"/>
<path d="M1630 4806 c0 -2 7 -7 16 -10 8 -3 12 -2 9 4 -6 10 -25 14 -25 6z"/>
<path d="M940 4546 c0 -2 7 -7 16 -10 8 -3 12 -2 9 4 -6 10 -25 14 -25 6z"/>
<path d="M1035 4500 c3 -5 8 -10 11 -10 2 0 4 5 4 10 0 6 -5 10 -11 10 -5 0
-7 -4 -4 -10z"/>
<path d="M1117 4459 c7 -7 15 -10 18 -7 3 3 -2 9 -12 12 -14 6 -15 5 -6 -5z"/>
<path d="M5990 4200 c-8 -5 -10 -10 -5 -10 6 0 17 5 25 10 8 5 11 10 5 10 -5
0 -17 -5 -25 -10z"/>
<path d="M1380 4166 c0 -2 7 -7 16 -10 8 -3 12 -2 9 4 -6 10 -25 14 -25 6z"/>
<path d="M6410 4140 c-9 -6 -10 -10 -3 -10 6 0 15 5 18 10 8 12 4 12 -15 0z"/>
<path d="M5815 4130 c-3 -5 -1 -10 4 -10 6 0 11 5 11 10 0 6 -2 10 -4 10 -3 0
-8 -4 -11 -10z"/>
<path d="M1280 4019 c0 -5 5 -7 10 -4 6 3 10 8 10 11 0 2 -4 4 -10 4 -5 0 -10
-5 -10 -11z"/>
<path d="M5948 4013 c7 -3 16 -2 19 1 4 3 -2 6 -13 5 -11 0 -14 -3 -6 -6z"/>
<path d="M763 3863 c9 -2 23 -2 30 0 6 3 -1 5 -18 5 -16 0 -22 -2 -12 -5z"/>
<path d="M1008 3813 c6 -2 18 -2 25 0 6 3 1 5 -13 5 -14 0 -19 -2 -12 -5z"/>
<path d="M1128 3793 c7 -3 16 -2 19 1 4 3 -2 6 -13 5 -11 0 -14 -3 -6 -6z"/>
<path d="M1173 3783 c9 -2 25 -2 35 0 9 3 1 5 -18 5 -19 0 -27 -2 -17 -5z"/>
<path d="M6088 3753 c7 -3 16 -2 19 1 4 3 -2 6 -13 5 -11 0 -14 -3 -6 -6z"/>
<path d="M5968 3733 c6 -2 18 -2 25 0 6 3 1 5 -13 5 -14 0 -19 -2 -12 -5z"/>
<path d="M6490 3650 c0 -5 7 -7 15 -4 8 4 15 8 15 10 0 2 -7 4 -15 4 -8 0 -15
-4 -15 -10z"/>
<path d="M6458 3643 c7 -3 16 -2 19 1 4 3 -2 6 -13 5 -11 0 -14 -3 -6 -6z"/>
<path d="M6185 3620 c-3 -5 -1 -10 4 -10 6 0 11 5 11 10 0 6 -2 10 -4 10 -3 0
-8 -4 -11 -10z"/>
<path d="M6278 3623 c6 -2 18 -2 25 0 6 3 1 5 -13 5 -14 0 -19 -2 -12 -5z"/>
<path d="M6008 3593 c7 -3 16 -2 19 1 4 3 -2 6 -13 5 -11 0 -14 -3 -6 -6z"/>
<path d="M6058 3453 c7 -3 16 -2 19 1 4 3 -2 6 -13 5 -11 0 -14 -3 -6 -6z"/>
<path d="M5993 3253 c26 -2 67 -2 90 0 23 2 2 3 -48 3 -49 0 -68 -1 -42 -3z"/>
<path d="M6468 3233 c7 -3 16 -2 19 1 4 3 -2 6 -13 5 -11 0 -14 -3 -6 -6z"/>
<path d="M6253 2983 c9 -2 25 -2 35 0 9 3 1 5 -18 5 -19 0 -27 -2 -17 -5z"/>
<path d="M641 2814 c0 -11 3 -14 6 -6 3 7 2 16 -1 19 -3 4 -6 -2 -5 -13z"/>
<path d="M3418 943 c7 -3 16 -2 19 1 4 3 -2 6 -13 5 -11 0 -14 -3 -6 -6z"/>
<path d="M3291 864 c0 -11 3 -14 6 -6 3 7 2 16 -1 19 -3 4 -6 -2 -5 -13z"/>
<path d="M3501 734 c0 -11 3 -14 6 -6 3 7 2 16 -1 19 -3 4 -6 -2 -5 -13z"/>
</g>
</svg>
